<?xml version="1.0" encoding="utf-8"?>
<!-- Generator: Adobe Illustrator 15.1.0, SVG Export Plug-In . SVG Version: 6.00 Build 0)  -->
<!DOCTYPE svg PUBLIC "-//W3C//DTD SVG 1.1//EN" "http://www.w3.org/Graphics/SVG/1.1/DTD/svg11.dtd">
<svg version="1.1" id="Layer_2" xmlns="http://www.w3.org/2000/svg" xmlns:xlink="http://www.w3.org/1999/xlink" x="0px" y="0px"
	 width="187.333px" height="215.156px" viewBox="302.167 198.875 187.333 215.156"
	 enable-background="new 302.167 198.875 187.333 215.156" xml:space="preserve">
<g>
	<polygon fill="#00BBF2" points="395.971,414 482.221,364.204 309.723,364.204 	"/>
	<polygon fill="#00BBF2" points="489.066,252.754 395.971,199.006 302.876,252.754 302.876,360.252 309.723,364.204 
		482.221,364.204 489.066,360.252 	"/>
	<g>
		<rect x="321.076" y="363.575" fill="#FFFFFF" width="150.379" height="1.481"/>
	</g>
	<g>
		<polygon fill="#FFFFFF" points="466.209,367.557 376.495,366.075 466.209,366.075 		"/>
	</g>
	<g>
		<polygon fill="#FFFFFF" points="325.975,367.557 325.975,366.075 360.271,366.075 		"/>
	</g>
	<g>
		<polygon fill="#FFFFFF" points="466.209,370.52 384.815,369.038 466.209,369.038 		"/>
	</g>
	<g>
		<polygon fill="#FFFFFF" points="326.91,370.52 326.91,369.038 362.119,369.038 		"/>
	</g>
	<g>
		<polygon fill="#FFFFFF" points="466.209,373.482 401.992,372.001 466.209,372.001 		"/>
	</g>
	<g>
		<polygon fill="#FFFFFF" points="330.438,373.482 330.438,372.001 369.036,372.001 		"/>
	</g>
	<g>
		<polygon fill="#FFFFFF" points="455.561,376.445 379.034,374.964 455.561,374.964 		"/>
	</g>
	<g>
		<polygon fill="#FFFFFF" points="339.077,376.441 339.077,374.96 361.901,374.961 		"/>
	</g>
	<g>
		<polygon fill="#FFFFFF" points="450.799,379.408 386.566,377.927 450.799,377.927 		"/>
	</g>
	<g>
		<polygon fill="#FFFFFF" points="345.01,379.408 345.01,377.927 365.107,377.927 		"/>
	</g>
	<g>
		<polygon fill="#FFFFFF" points="446.039,382.371 393.531,380.891 446.039,380.891 		"/>
	</g>
	<g>
		<polygon fill="#FFFFFF" points="350.926,382.371 350.926,380.891 368.627,380.891 		"/>
	</g>
	<g>
		<polygon fill="#FFFFFF" points="441.275,385.335 390.44,383.854 441.275,383.854 		"/>
	</g>
	<g>
		<polygon fill="#FFFFFF" points="436.906,388.338 401.992,386.855 436.906,386.855 		"/>
	</g>
	<g>
		<polygon fill="#FFFFFF" points="429.316,391.301 379.034,389.818 429.316,389.818 		"/>
	</g>
	<g>
		<polygon fill="#FFFFFF" points="356.501,385.335 356.501,383.854 373.733,383.854 		"/>
	</g>
	<path fill="#FFFFFF" d="M484.898,315.335c-0.578-0.056-1.16-0.09-1.75-0.09c-6.537,0-12.306,3.358-15.728,8.47
		c-1.973-0.706-4.094-1.096-6.307-1.096c-5.869,0-11.117,2.707-14.603,6.956c-1.602-6.654-7.508-11.601-14.549-11.601
		c-4.33,0-8.225,1.87-10.961,4.855c0.045-0.314,0.078-0.633,0.078-0.961c0-3.525-2.811-6.389-6.279-6.389
		c-3.131,0-5.721,2.336-6.197,5.388c-3.873,0.755-6.801,4.216-6.801,8.375c0,1.075,0.203,2.1,0.564,3.05
		c-0.762,0.395-1.457,0.896-2.062,1.499c-1.063-4.789-5.053-8.452-9.96-8.931c-0.413-4.324-3.995-7.704-8.354-7.704
		c-3.061,0-5.733,1.669-7.199,4.161c-1.342-0.569-2.812-0.885-4.354-0.885c-6.269,0-11.353,5.168-11.353,11.539
		c0,1.332,0.234,2.604,0.643,3.793c-1.408,0.135-2.712,0.623-3.831,1.373h-1.747c-0.862-3.779-4.183-6.599-8.162-6.599
		c-2.285,0-4.351,0.928-5.865,2.435c0.004-0.154,0.022-0.304,0.022-0.455c0-5.403-3.663-9.93-8.598-11.184c0-0.005,0-0.011,0-0.018
		c0-4.709-3.761-8.533-8.397-8.533c-3.323,0-6.187,1.968-7.548,4.816c-0.838-0.287-1.729-0.445-2.662-0.445
		c-1.752,0-3.368,0.557-4.712,1.49v39.248l11.204,6.557h152.606l12.861-7.104V315.335L484.898,315.335z"/>
	<path fill="#EF3D30" d="M484.648,347.729l1.311-2.655c-14.045-6.925-24.279-19.364-28.471-34.13v-10.825h-2.207v-4.209h-4.443
		v4.209H448.6v11.739c-3.805,12.506-11.951,23.035-22.592,29.963h-0.455v0.287c-8.537,5.438-18.631,8.584-29.348,8.584
		c-10.76,0-20.837-3.106-29.346-8.498v-0.373h-0.58c-10.28-6.698-18.188-16.771-22.11-28.776v-12.926h-2.223v-4.209h-4.444v4.209
		h-2.223v14.438c-4.75,13.17-14.423,24.164-27.308,30.516l1.311,2.656c1.217-0.599,2.398-1.246,3.561-1.924v6.01h-3.696v7.408
		h24.651v16.34l11.853,5.848v-22.188h101.483v22.188l11.854-7.082v-15.105h24.996v-7.406h-3.646v-6.475
		C481.738,346.188,483.164,346.996,484.648,347.729z M474.328,341.184v10.631h-3.047V338.6
		C472.264,339.493,473.279,340.355,474.328,341.184z M466.756,333.995c0.975,1.11,1.982,2.192,3.045,3.229v14.59h-3.045V333.995z
		 M465.273,351.814h-3.045v-23.698c0.959,1.426,1.961,2.823,3.045,4.157V351.814z M443.662,328.741v23.073h-3.047v-19.071
		C441.688,331.455,442.703,330.121,443.662,328.741z M439.133,334.459v17.355h-3.043v-14.209
		C437.145,336.6,438.154,335.544,439.133,334.459z M431.135,341.818c1.193-0.907,2.354-1.859,3.473-2.854v12.851h-3.047v-9.994
		h-0.426V341.818z M430.08,351.814h-3.045v-7.143c1.035-0.656,2.055-1.337,3.045-2.055V351.814z M425.553,351.814h-3.359v-4.388
		c1.144-0.579,2.265-1.188,3.359-1.841V351.814z M420.713,351.814h-10.131c3.51-0.91,6.898-2.14,10.131-3.664V351.814z
		 M381.723,351.814H371.7v-3.601C374.896,349.711,378.247,350.917,381.723,351.814z M370.218,347.506v4.309h-3.359v-6.148
		C367.958,346.312,369.076,346.93,370.218,347.506z M365.377,351.814h-3.044v-9.109c0.993,0.718,2.007,1.406,3.044,2.061V351.814z
		 M361.139,341.818h-0.287v9.996h-3.047v-12.735C358.88,340.037,359.995,340.945,361.139,341.818z M356.324,337.705v14.109h-3.044
		V334.57C354.256,335.652,355.269,336.701,356.324,337.705z M351.798,351.814h-3.047v-22.949c0.958,1.38,1.975,2.711,3.047,3.998
		V351.814z M330.906,329.302v22.513h-3.055v-18.598C328.923,331.953,329.948,330.652,330.906,329.302z M326.37,334.928v16.887
		h-3.045v-13.822C324.376,337.002,325.398,335.986,326.37,334.928z M321.842,339.328v12.486h-3.045v-9.989
		C319.845,341.027,320.856,340.189,321.842,339.328z M314.216,344.962c1.058-0.655,2.093-1.343,3.1-2.062v8.914h-3.1V344.962z
		 M332.37,351.814v-24.687c1.059-1.649,2.022-3.358,2.909-5.108v18.217h-1.481v11.578H332.37L332.37,351.814z M344.168,340.236
		v-19.247c0.932,1.94,1.967,3.819,3.102,5.628v25.197h-1.62v-11.578H344.168z M445.143,351.814v-25.313
		c1.279-2.037,2.437-4.16,3.457-6.362v20.1h-1.467v11.576H445.143L445.143,351.814z M457.488,340.236v-20.65
		c0.961,2.141,2.049,4.216,3.258,6.219v26.01h-1.76v-11.576h-1.498V340.236z M478.854,351.814h-3.045v-9.479
		c0.99,0.729,2.006,1.431,3.045,2.099V351.814z"/>
	<path fill="#FFFFFF" d="M441.086,382.271c-0.412-4.326-3.994-7.705-8.354-7.705c-3.062,0-5.734,1.668-7.199,4.16
		c-1.342-0.568-2.812-0.885-4.355-0.885c-6.268,0-11.352,5.168-11.352,11.54c0,1.332,0.234,2.604,0.643,3.793
		c-1.408,0.134-2.713,0.622-3.832,1.373h-1.746c-0.861-3.78-4.182-6.599-8.162-6.599c-2.285,0-4.351,0.928-5.866,2.434
		c0.004-0.152,0.023-0.303,0.023-0.453c0-5.404-3.663-9.931-8.599-11.185c0-0.005,0-0.011,0-0.019c0-4.709-3.76-8.533-8.397-8.533
		c-3.323,0-6.186,1.969-7.548,4.816c-0.837-0.285-1.729-0.445-2.661-0.445c-3.347,0-6.228,1.994-7.576,4.871
		c-0.634-2.035-1.998-3.737-3.781-4.795c0.65-1.58,1.014-3.31,1.014-5.129c0-7.313-5.835-13.246-13.031-13.246
		c-3.038,0-5.824,1.069-8.041,2.842c-2.183-2.521-5.399-4.121-8.996-4.121c-4.34,0-8.126,2.328-10.208,5.798l82.228,47.667
		l45.831-26.176C441.107,382.275,441.098,382.273,441.086,382.271z"/>
	<g>
		<path fill="#EF3D30" d="M395.971,209.27l84.207,48.616v97.234l-84.207,48.616l-84.205-48.616v-97.234L395.971,209.27
			 M395.971,199.006l-93.095,53.748v107.498L395.971,414l93.095-53.748V252.754L395.971,199.006L395.971,199.006z"/>
	</g>
	<path fill="#FFFFFF" d="M396.342,248.695c-24.24,0-43.961,19.723-43.961,43.963c0,24.242,19.722,43.965,43.961,43.965
		c24.24,0,43.963-19.723,43.963-43.965C440.305,268.418,420.582,248.695,396.342,248.695z"/>
	<path fill="#EF3D30" d="M396.342,340.118c-26.167,0-47.458-21.291-47.458-47.46s21.291-47.459,47.458-47.459
		c26.17,0,47.461,21.29,47.461,47.459S422.512,340.118,396.342,340.118z M396.342,251.125c-22.901,0-41.533,18.632-41.533,41.533
		c0,22.902,18.632,41.533,41.533,41.533c22.9,0,41.533-18.631,41.533-41.533C437.875,269.757,419.242,251.125,396.342,251.125z"/>
	<g>
		<g>
			<g>
				<g>
					<path fill="#EF3D30" d="M385.894,319.16c0-0.137-0.072-0.264-0.189-0.33l-3.135-1.807c-0.054-0.027-0.113-0.045-0.173-0.049
						c-0.006,0-0.028,0-0.031,0c-0.061,0.004-0.12,0.021-0.174,0.049l-3.135,1.807c-0.117,0.066-0.189,0.193-0.189,0.33l0.007,4.857
						c0,0.066,0.035,0.131,0.094,0.162c0.059,0.038,0.131,0.038,0.188,0l1.863-1.063c0.116-0.07,0.188-0.197,0.188-0.33v-2.269
						c0-0.137,0.072-0.262,0.189-0.328l0.794-0.459c0.06-0.035,0.123-0.049,0.188-0.049c0.064,0,0.131,0.014,0.189,0.049
						l0.793,0.459c0.117,0.066,0.189,0.191,0.189,0.328v2.269c0,0.133,0.072,0.26,0.189,0.33l1.861,1.063
						c0.059,0.038,0.132,0.038,0.19,0c0.058-0.031,0.094-0.096,0.094-0.162L385.894,319.16"/>
				</g>
				<g>
					<path fill="#EF3D30" d="M402.633,312.482c-0.059-0.032-0.131-0.032-0.189,0c-0.057,0.033-0.092,0.098-0.092,0.164v4.812
						c0,0.046-0.024,0.09-0.067,0.112c-0.039,0.022-0.093,0.022-0.132,0l-0.786-0.451c-0.115-0.066-0.263-0.066-0.378,0
						l-3.137,1.812c-0.117,0.065-0.188,0.193-0.188,0.323v3.623c0,0.134,0.07,0.261,0.188,0.329l3.137,1.809
						c0.115,0.069,0.263,0.069,0.378,0l3.139-1.809c0.117-0.068,0.188-0.195,0.188-0.329v-9.024c0-0.14-0.072-0.268-0.193-0.33
						L402.633,312.482 M402.342,321.689c0,0.033-0.02,0.065-0.049,0.08l-1.076,0.623c-0.029,0.015-0.064,0.015-0.094,0l-1.078-0.623
						c-0.027-0.015-0.047-0.047-0.047-0.08v-1.248c0-0.028,0.02-0.061,0.047-0.078l1.078-0.621c0.029-0.018,0.064-0.018,0.094,0
						l1.076,0.621c0.029,0.019,0.049,0.05,0.049,0.078V321.689z"/>
				</g>
			</g>
			<g>
				<path fill="#EF3D30" d="M413.852,320.413c0.115-0.069,0.188-0.19,0.188-0.327v-0.876c0-0.14-0.072-0.261-0.188-0.33l-3.115-1.81
					c-0.115-0.068-0.262-0.068-0.379,0l-3.135,1.81c-0.117,0.069-0.191,0.193-0.191,0.33v3.616c0,0.14,0.076,0.264,0.195,0.33
					l3.112,1.773c0.117,0.066,0.254,0.066,0.371,0.002l1.886-1.043c0.061-0.035,0.098-0.1,0.098-0.166
					c0.002-0.066-0.035-0.131-0.096-0.168l-3.154-1.809c-0.06-0.031-0.096-0.096-0.096-0.165v-1.134
					c0-0.066,0.036-0.131,0.096-0.162l0.981-0.567c0.06-0.034,0.132-0.034,0.188,0l0.982,0.567c0.059,0.031,0.094,0.096,0.094,0.162
					v0.894c0,0.066,0.037,0.132,0.097,0.162c0.059,0.035,0.129,0.035,0.188,0L413.852,320.413"/>
			</g>
			<g>
				<path fill="#EF3D30" d="M391.596,317.051c0.118-0.066,0.26-0.066,0.379,0l3.134,1.812c0.118,0.066,0.19,0.191,0.19,0.326v3.623
					c0,0.137-0.072,0.258-0.19,0.33l-3.134,1.809c-0.119,0.066-0.261,0.066-0.379,0l-3.136-1.809
					c-0.117-0.069-0.189-0.193-0.189-0.33v-3.623c0-0.135,0.072-0.26,0.189-0.326L391.596,317.051"/>
			</g>
			<g>
				<path fill="#EF3D30" d="M410.5,320.242c0.021-0.012,0.051-0.012,0.072,0l0.604,0.348c0.021,0.016,0.035,0.037,0.035,0.062v0.695
					c0,0.025-0.014,0.049-0.035,0.062l-0.604,0.348c-0.021,0.012-0.051,0.012-0.072,0l-0.602-0.348
					c-0.021-0.014-0.037-0.037-0.037-0.062v-0.695c0-0.025,0.016-0.049,0.037-0.062L410.5,320.242"/>
			</g>
		</g>
	</g>
	<g>
		<path fill="#EF3D30" d="M374.231,293.955c0.583,4.618,3.695,7.924,8.459,7.924c2.82,0,5.299-2.236,5.299-5.152
			c0-4.765-3.694-4.716-9.528-6.466c-1.458-0.438-9.431-1.41-9.431-10.501c0-3.257,2.723-9.675,10.938-9.675
			c2.722,0,5.299,1.167,7.195,2.966v-2.188h5.104v10.501h-4.861c-0.389-1.848-1.215-3.452-2.382-4.57
			c-1.215-1.167-2.819-1.847-4.764-1.847c-2.868,0-4.91,1.75-4.91,4.764c0,3.354,4.764,3.986,9.528,5.396
			c4.765,1.41,9.432,3.16,9.432,10.744c0,6.562-4.716,10.889-11.133,10.889c-3.257,0-6.223-0.875-8.75-2.965v2.188h-5.105v-12.008
			H374.231L374.231,293.955z"/>
		<path fill="#EF3D30" d="M397.619,305.963v-4.765h3.742v-25.571h-3.742v-4.764h27.418v9.285h-5.59v-4.521h-11.766v8.849h10.549
			v5.542h-10.549v11.181h4.133v4.765L397.619,305.963L397.619,305.963z"/>
	</g>
</g>
</svg>
